<svg xmlns="http://www.w3.org/2000/svg" viewBox="0 0 267.7 267.7"><g fill="#000000"><path d="M233.9 55.8c-.4-.4-.6-.6.2.3.2.1.7.7-.2-.3zm1 1.1c.6.7.7.9.9 1.1-.3-.4-.5-.6-.9-1.1zm7.2 9.2c.2.3.3.5.4.6.1.1.1.2.2.3.1.1.2.3.3.5v-.1c-.2-.2-.3-.4-.5-.7.4.6.8 1.1 1.1 1.6-.6-.9-1.2-1.8-1.8-2.6 0 .1.1.1.1.2.1.2.2.3.4.5-.1-.2-.2-.3-.2-.3z"/><path d="M235.6 57.7c-.3-.3.3.4.9 1.1.1.1-.4-.6-.9-1.1zm9.3 12.3s0 .1 0 0zm-.8-1c.3.4.6.8.7 1v-.1c-.5-.8-.5-.6-.8-1.1-.1-.2-.2-.3-.4-.5.2.3.4.5.5.7z"/><path d="M244.8 69.9c.1.1.1.1.1.2V70c-.1-.2-.3-.4-.4-.6-.1.1.1.3.3.5z"/><path d="M244.8 69.9s0 .1 0 0c.2.3.4.6.5.8-.1-.3-.3-.5-.5-.8zm.7 1.1s1.4 2.3 1.5 2.4c-.5-.9-.7-1.2-1.5-2.4zM15 77.3c-.2.4-1.6 3.5-1.2 2.7.5-1.1 1.5-3.3 1.2-2.7zm1.9-4c.5-.9.5-1 .8-1.7.1-.2.2-.4.3-.7-.5 1.1-.3.7-.8 1.6.2-.2-.4.9-.3.8zM13.4 81c.1-.3.3-.6.4-.9-.3.5-.4.9-.4.9z"/><path d="M13.7 80.2c.5-1 1.2-2.7 1.3-2.9-.7 1.6-.8 1.7-1.3 2.9zM118 251.9s-.1 0 0 0c-.1 0 0 .1 0 0zM17.7 71.7l.1-.1c.1-.1.1-.3.2-.4.2-.4.4-.9.7-1.4-.2.3-.1.1-.3.6-.4.6.2-.5-.4.6-.1.2-.2.4-.3.7zm213.2-19.2l-1-1c-.2-.2.8.9.7.8-.2-.3-.1-.3.3.2zM118 252c0-.1 0 0 0 0zM16.5 73.9c-.4.8-.3.7-.8 1.7 0-.1.2-.5.5-1v-.2c.1-.3.3-.6.4-.8.2-.2-.1.5-.1.3zm220.2-14.8s-.1 0 0 0c-.1-.1-.1 0 0 0zM9.9 90.3c-.1.3-.1.4-.1.3-.1.4-.3.9-.4 1.2.2-.6.4-1.1.5-1.5zm227.4-30.5c.1.1.2.2.3.4 0 0-.1-.1-.3-.4 0 0-.1-.1-.1-.2l-.3-.3c.1.2.3.4.4.5zm2.5 3.2c-.1-.2-.3-.5-.6-.7l-.7-.9-.1-.1c0 .1.1.2.2.3.5.5 1.5 1.8 1.2 1.4zm-3.4-4.3l.2.2c-.2-.2-.4-.5-.6-.7.2.2.3.4.4.5zm-4.6-5c-.3-.3-.2-.2.2.3l-1-1c-.2-.4.9.7.8.7zm3.4 3.7c.2.2.7.7-.2-.3-.4-.3-.6-.5.2.3zm-14.3-25.2s-.1-.1 0 0l-.1-.1.1.1zm-31.1-20c-.6-.3-1.2-.6-1.9-.8.1 0 .1.1.1.2.8.3 1 .3 1.8.6zm54.4 57c0-.1-.1-.2-.2-.2 0-.1-.1-.1-.1-.2.2.2.3.3.3.4z"/><path d="M244 68.9l-.6-.9s.2.2.3.5c.1.2.3.4.3.4.2.4.3.5.5.9.2.3.5.7.8 1.3 0-.1-.1-.1-.1-.2-.1-.1-.1-.2-.1-.2-.5-.9-.4-.7-1.1-1.8z"/><path d="M245.2 70.8c-.2-.3-.4-.7-.8-1.2 0 0 .4.7.8 1.3v-.1zm0 0c.1.1.1.1 0 0 .4.6.7 1.1.7 1.1-.2-.4-.4-.7-.7-1.1zm-9.3-12.5c.6.7.8.9 1 1.1-.4-.4-.5-.6-1-1.1z"/><path d="M245.6 71.4s-.5-.8-.5-.9c0 .1.1.1.1.2.1.2.3.5.4.7zm-4.9-7.2c-.1-.1-.2-.2-.2-.3-.7-.8.5.8.2.3l-1.2-1.5c0 .1.6.8 1.3 1.7.1.1 0 0-.1-.2zm4.2 6c-.4-.5.5.9-.4-.6.2.3.4.7.6 1 0-.1-.1-.2-.1-.2-.1-.1-.2-.3-.3-.4.1 0 .1.1.2.2zm-3-4.4s0-.1-.1-.1c-.1-.1-.1-.2-.2-.3 0 .1.2.3.3.4z"/><path d="M241.9 66c.3.4 1.9 2.7 1.9 2.6-.2-.3-.4-.5-.5-.8-.1-.1-.1-.2-.3-.4-.2-.2-.3-.5-.5-.7-.3-.4-.5-.8-.8-1.2l.1.1c-.4-.5-.7-1-1.1-1.5.6.9.8 1.2.5.8 1.1 1.7.4.6.7 1.1z"/><path d="M77.6 255.2c-.1-.4.1-.6.5-.5v.5c0 .2 0 .3-.1.3 4.7 2.2 9.6 4.1 14.6 5.7.1-.2.2-.2.5-.2v.3c4.1 1.3 8.2 2.4 12.5 3.3v-.2c-.1-.4.1-.6.5-.5v.8c9 1.9 18.3 2.9 27.8 2.9 44.1 0 83.2-21.3 107.6-54.3h-.6c-.1 0-.1 0-.1-.1-.2-.3-.6-.5-.6-.9 0-.5.4-.6.6-.9l.1-.1h.4c.4-.1.6.1.5.5v1.2c6.4-8.7 11.7-18.1 15.9-28.2-.2-.2-.1-.6-.1-.9h.4c2.1-5.1 3.8-10.4 5.3-15.9-.1-.2 0-.6 0-.9-.1-.2.1-.3.3-.4 1.4-5.4 2.4-10.8 3.1-16.4-.1-.3 0-.7 0-1.1h.1c.2-1.6.3-3.1.5-4.7-.3 0-.2-.2-.2-.3-.1-.4 0-.5.3-.5.2-3.3.4-6.6.4-10 0-5.8-.4-11.5-1.1-17.2-.2 0-.4 0-.5-.1-.1-.2 0-.6 0-.9-.1-.2.1-.3.3-.4l-.9-5.7c-.3 0-.6 0-.5-.3 0-.3-.1-.8 0-.9 0 0 .1-.1.3-.1-1.3-6.8-3.2-13.5-5.5-19.9v.3c.2.4-.9.5-.9.1 0-.3-.1-.8 0-.9.1-.1.4-.2.7-.2-7.6-20.6-20.1-38.8-36.1-53.2l.3.3c-.4-.3.6.6 1.3 1.3-.5-.4-1.5-1.4-2.2-2.1-.3-.2-.5-.5-.8-.7-.3-.2-1-.9-1.7-1.5-.3-.2-.5-.4-.8-.7-.1.1-.1.2-.2.3-.6 0-1 .5-1.7.1-.6-.3-.8-.7-.8-1.3-.1 0-.2-.1-.2-.1-.7-.4-1-.9-.8-1.6 0-.1.1-.2.1-.3-6.4-4.9-13.2-9.3-20.4-13h-.1c-1.8-.9-3.6-1.8-5.4-2.6-.6-.2-1.5-.5-2-.7v.1c.1.4-.1.6-.5.5v-.8h-.1.1c0-.1.1-.1.2-.1h.1c-4.8-2.1-9.8-4-15-5.6-.1.1-.2.1-.4 0v-.2c-4.1-1.2-8.2-2.3-12.4-3.1 0 .3-.2.4-.5.3v-.4c-2.8-.5-5.6-1-8.4-1.4-.3.1-.7.2-1.1 0-.1-.1-.2-.1-.2-.2-5.4-.5-10.8-.8-16.2-.8C98 0 65.4 14.1 41.4 37.1c.2-.1.6-.1.6 0 .1.2 0 .6 0 .9v.1l.1-.1-.1.1v.1c.1 0 .1-.1.1-.1l-.1.1c0 .1-.1.1-.2.1l-.2.2-.2.2.2-.2s.1-.1.1-.2l.1-.1h-.1c-.7.8-1.6 1.6-2.3 2.4-.2.2 1.3-1.4 2-2.2l.3-.3c-.3.1-.6 0-.6-.3s-.1-.6 0-.8c-15 14.4-26.6 32.2-33.6 52.2.1.2 0 .6 0 .9.1.2-.2.4-.5.4-4.4 13-6.9 27-7 41.4.1 0 .2 0 .3.1.1.2 0 .6 0 .9.1.2-.1.3-.3.4v.2C0 165 10.9 194 29.1 216.9h.2v.2c2.4 2.9 4.8 5.8 7.4 8.5 0-.3.1-.4.5-.3v.5c0 .2 0 .3-.1.3 11.5 12 25.2 21.9 40.5 29v.1zm91.5-3.4c0-.3 0-.4.2-.4s.2.2.2.3c.1.4-.1.6-.5.5 0-.1 0-.3.1-.4zm.7 9.4c.3-.1.6-.2.8-.3-.5.2-.8.3-.8.3zm.5-1.1h-.4c-.1 0-.1 0-.1-.1-.2-.3-.6-.5-.6-.9 0-.5.4-.6.6-.9l.1-.1h.4c.4-.1.6.1.5.5v1.1c.1.3-.1.5-.5.4zm2.1-1.9c-.5.2-.8.2-1.1.3.5-.1.8-.2 1.1-.3 0 0-.1 0-.3.1.3-.1.9-.3 1.4-.4-.3.1-.7.2-1.1.3zm.9-1.5c-1 .1-.8-.7-.7-1.3h1c.4.5.4 1.2-.3 1.3zm-.1-250.5c.2.1.4.1.7.1h.1c-.2 0-.4 0-.6-.1h-.2c-.1 0-.2 0-.2-.1.1 0 .1.1.2.1zm0-.1c.2 0 .3.1.5.1-.2 0-.4 0-.5-.1zm0 11.5v.5c0 .3 0 .4-.2.4-.3 0-.2-.2-.2-.3-.2-.5 0-.7.4-.6zm.8 230c.1 0 .1 0 .2-.1 0 0-.1.1-.2.1zm16.9-207.4c-.3 0-.2-.2-.2-.3-.1-.4.1-.6.5-.5v.5c-.1.2-.1.3-.3.3zm.2 201.1v-.5c0-.3 0-.4.2-.4s.2.2.2.3c.2.5 0 .7-.4.6zm2.3 8.7s.1-.1.2-.1c-.1 0-.2 0-.2.1zm11.8-218.4c0 .3 0 .4-.2.4-.3 0-.2-.2-.2-.3-.1-.4.1-.6.5-.5 0 .1 0 .2-.1.4zm5.1 208.8c.1-.1.3-.2.3-.2-.1.1-.2.2-.3.2zM216.8 52c0 .3.1.8 0 .9-.1.1-.8.3-.9.1-.1-.2 0-.6 0-.9-.2-.4 1-.6.9-.1zm0 182.8c-.7.6-1.5 1.2-1.4 1.1.8-.7 1.6-1.3 1.4-1.1zm2 .5c-.7.5-1.4 1.1-2.1 1.5.7-.6 2-1.4 3.5-2.7-.2.2-.7.7-1.4 1.2zm-1.4-.7c.3-.3.7-.6 1.1-1-.4.3-.7.6-1.1 1zm3.8-196.3c-.2-.2-.4-.4-.3-.4.1.1.2.3.3.4l.2.2c0-.1-.1-.1-.2-.2zm1.3 175.3c-.1.1-.2.2-.4.3l-.2.2.2-.2c.2-.1.5-.4.4-.3zm.6-172.9l-.7-.7.4.4.3.3zm-.2-6.4l-.3-.3.6.6-.3-.3zm.7 196.5s-.1.1-.2.1l.2-.1zm.5-2.6l-.2.2c.2-.3.3-.4.2-.2zm1.8 1.6c0 .3 0 .4-.2.4s-.2-.2-.2-.3c-.1-.4.1-.6.5-.5-.1.1-.1.3-.1.4zm.2-3.6l.2-.2c0 .1-.1.1-.2.2zm2.8-7.7c0-.3-.1-.8 0-.9.1-.1.8-.3.9-.1.1.2 0 .6 0 .9.1.4-1 .6-.9.1zm1.5 2.8c.1-.1.7-.8.7-.8-.7.8.3-.3-.7.8-.4.4.7-.8 0 0zm.3 3c.8-.8 1.4-1.4 1.9-1.8-.6.5-1.2 1.1-1.9 1.8zm6.8-7c-.1.1-.2.3-.3.4l-.3.3c.1.3.1.6.1.9-.1.1-.2.3-.3.4-.4 0-.8.3-1.3.3-.5.5-1 1-1.4 1.6l-.5.5-.1.1.6-.6c.4-.5.9-1 1.4-1.6-.1 0-.2 0-.4-.1-.6-.3-.8-.7-.8-1.3-.1 0-.2-.1-.2-.1-.1.1-.1.2-.2.2-.2.2-1.9 2.2-1.7 1.9.7-.8 1.2-1.4 1.9-2.2l-1.4 1.6c.3-.3 1-1.1 1.4-1.6-.6-.4-.9-.9-.8-1.6.1-.7.7-1 1.2-1 .2 0 .4 0 .5.1.3-.3.5-.7.8-1.1-.3.4-.6.7-.8 1.1h.1c.2-.2.3-.4.4-.6-.1.1-.3.3-.4.6.6.2.8.7.8 1.3.6.1.9.5 1 1.1.3-.1.5-.3.7-.6zm-3.9-155.8c0 .3.1.8 0 .9-.1.1-.8.3-.9.1-.1-.2 0-.6 0-.9-.2-.4 1-.5.9-.1zm.9 8.9c.3.6.4 1.3-.3 1.3-1 .1-.8-.7-.7-1.3h1zm1.7 127.7s.2-.3.4-.5c.2-.3.4-.5.3-.4l-.7.9zm1.3 19s-.1.1 0 0c0 0 .1-.1.1-.2 0 .1-.1.2-.1.2zm.1-2.5c0 .3 0 .4-.2.4s-.2-.2-.2-.3c-.1-.4.1-.6.5-.5 0 .1 0 .3-.1.4zm-.4-17.9c.1-.1.8-1.2 1.3-1.8-.2.4-.9 1.3-1.3 1.8zm1.6 19.1c.1 0 .1-.1 0 0zm.5-24.4c-.1.1-.8.3-.9.1-.1-.2 0-.6 0-.9-.2-.4.9-.5.9-.1 0 .3.1.8 0 .9zm.3 1.4c0-.1.5-.8.8-1.1-.1 0-.7.9-.8 1.1zm.6 17.5c0-.1 2.2-3.1 1.9-2.7-1 1.3-1.2 1.7-1.9 2.7zm.4-5.5c0-.3-.1-.8 0-.9s.8-.3.9-.1c.1.2 0 .6 0 .9.2.4-.9.6-.9.1zm1.2 2.7c-.3.4-.6.8-1.1 1.5-.1 0 .7-1.1 1.1-1.5zm.3 2c0 .3 0 .4-.2.4s-.2-.2-.2-.3c-.1-.4.1-.6.5-.5-.1.1-.1.2-.1.4zm.4-12.7c-1 .1-.8-.7-.7-1.3h1c.4.5.4 1.2-.3 1.3zm-.3-87.3v.5c0 .3 0 .4-.2.4s-.2-.2-.2-.3c-.2-.5 0-.7.4-.6zm2.2-37.5l.1-.1h.4c.4-.1.6.1.5.5v1.1c.1.4-.1.6-.5.5h-.4c-.1 0-.1 0-.1-.1-.2-.3-.6-.5-.6-.9 0-.2 0-.3.1-.4h-.5c-.1 0-.1 0-.1-.1-.2-.3-.6-.5-.6-.9 0-.5.4-.6.6-.9l.1-.1h.4c.4-.1.6.1.5.5.1.2.1.5.1.9zm2.4 81l.1-.1h.4c.4-.1.6.1.5.5v1.1c.1.4-.1.6-.5.5h-.4c-.1 0-.1 0-.1-.1-.2-.3-.6-.5-.6-.9 0-.2 0-.3.1-.4h-.5c-.1 0-.1 0-.1-.1-.2-.3-.6-.5-.6-.9 0-.5.4-.6.6-.9l.1-.1h.4c.4-.1.6.1.5.5.1.3.1.6.1.9 0 .1 0 .1 0 0zm2.7 41.9c.6-1 .5-1 .8-1.6 1.5-2.9-.2.5-.5 1-.2.4-.7 1.3-.7 1.3l.4-.7zm-.2-2.5s0-.1.1-.1c0 0 0 .1-.1.1zm.3-.5c.1-.3.3-.6.4-.8-.1.1-.3.4-.4.8zm-.4.7l-1.6 3.2 1.6-3.2c.1-.1.1-.3.2-.4-.1.2-.1.3-.2.4zm-4.5-1.7h-.4c-.1 0-.1 0-.1-.1-.2-.3-.6-.5-.6-.9 0-.3.2-.5.3-.6 0-.1.1-.1.1-.2s.2-.4.4-.7c0 0-.2.5-.4.9.1-.1.2-.2.2-.3l.1-.1h.4c.4-.1.6.1.5.5v1.1l.1-.1h.4c.4-.1.6.1.5.5v1.1c.1.4-.1.6-.5.5h-.4c-.1 0-.1 0-.1-.1-.2-.3-.6-.5-.6-.9s.1-.5.1-.6c.1 0 0 0 0 0zm-.8-8.4c0 .3.1.8 0 .9-.1.1-.8.3-.9.1-.1-.2 0-.6 0-.9-.2-.4 1-.5.9-.1zm1.4-94.6v.5c0 .3 0 .4-.2.4-.3 0-.2-.2-.2-.3-.2-.5-.1-.7.4-.6zm0 108.9c.1-.1-.6 1.2-.6 1 .2-.3.4-.6.6-1zm0 3.2c.6-1.1.4-.7.9-1.6-.4.7-.8 1.4-1.1 1.9-.6 1.1.5-.9.2-.3zm1.3-2.2c.1-.2-.3.6-.4.7-.1.2-.3.4-.4.6-.3.5-.5.9-.9 1.6.6-1 .9-1.5 1.7-2.9zm-.2.4c.1-.1.1-.2.2-.3 0-.1-.1.1-.2.3-.1.1-.1.3-.2.4-.2.3-.3.6-.5.9.1-.2.5-.9.7-1.3zm.2-.4c0-.1.1-.2.1-.2 0 .1-.2.3-.4.8.8-1.5 1.6-3.1 2.5-4.9-.2.3-1.5 2.8-2.2 4.3zm2-4.1c-.6 1.2-1.2 2.5-1.9 3.7 0 0 0 .1-.1.1-.2.3-.3.6-.5.9.2-.3.4-.7.6-1 .6-1.2 1.3-2.5 1.9-3.7.6-1.2.6-1.2 0 0zm-.8-8c0 .3 0 .4-.2.4-.3 0-.2-.2-.2-.3-.1-.4.1-.6.5-.5-.1.1-.1.2-.1.4zm.5 5.2c-.2.5-.6 1.1-.7 1.4.1-.1.8-1.6.7-1.4zm-.9-112.4l.7 1.4c.3.5.5 1 .7 1.6-.4-.9-1.2-2.4-1.4-3zm.8 65.4c.3.6.4 1.3-.3 1.3-1 .1-.8-.7-.7-1.3h1zm-5.1 61.7c.4-.6.9-1.4.9-1.4-.5.8-1 1.6-.8 1.2 0 0-.1.1-.1.2zm.3-.5c.3-.4.7-1.1 1-1.5.9-1.3-.3.5.6-1-.1.2-.5.7-.4.6.4-.6.6-1 1-1.5.3-.5 1.2-1.8 1-1.5-.5.7-.7 1.2-1 1.5-.4.7 0 .1 0 0-.1.2-.9 1.4-.6 1-.9 1.5-1.1 1.7-1.8 2.8.1-.3.2-.4.2-.4zm.6-.3c.1-.2.2-.3.2-.2-.1.1-.2.1-.2.2zm10-12.2c0 .3 0 .4-.2.4-.3 0-.2-.2-.2-.3-.1-.4.1-.6.5-.5-.1.1-.1.2-.1.4zm.9-8.8c-.2.3-.3.8-.5 1.2 0 .1 0 .1-.1.2-.1.3-.3.7-.5 1.1l-.3.6c-.2.5 0 0 .3-.6l.6-1.2c.2-.4.3-.6.4-.9.6-1.4.6-1.3 1.3-3-.4.8-.7 1.8-1.2 2.6zm.7-1.8c.4-1 .6-1.4.9-2.4.2-.3-1 2.9-.9 2.4zm-.5 1.3l.4-1c.2-.5.4-.9.3-.7-.3.6-.5 1.2-.7 1.7zm2.2-4.6c.1-.3.3-.7.5-1.2-.1.4-.3.8-.5 1.2zm.2-14.1c0-.1.1-.3.1-.4 0 .1 0 .2-.1.4zm1.5 12.7c-.1.1-.8.3-.9.1-.1-.1-.1-.4 0-.6-.1.1-.1.3-.2.4 0-.1.1-.3.1-.4v-.3c-.1-.2 0-.3.2-.3.2-.6.4-1.2.5-1.6-.1.3-.3.9-.5 1.6.3-.1.7 0 .7.2.1.3.2.7.1.9zm1.2-43.7h-.2.2zm.2 0zm0 0zm.2 4.1zm.1 12c.1-.6.1-.7.1-1.4.1-.3-.1 1.5-.1 1.4zm.7-1.8c0 .5-.1 1.1-.1 1.3v-.2c0-.4.1-.7.1-.9v-.2zm2.6 4.3c-.1.5-.2 1.1-.3 1.5l.3-1.5c.1-.5.2-1 .2-1.6 0 .4-.1 1-.2 1.6zm.8-18.1h1c.3.6.4 1.3-.3 1.3-1 .2-.7-.7-.7-1.3zm.1 10.7zm.2-27.4c.1.5.1 1.1.2 2v-.8c0-.3-.1-.7-.1-1-.1 0-.1-.1-.1-.2zm1.4 8.6c-.1-.4-.2-1.7-.5-3.2-.1-.4-.6-3.1-.5-2.8.2 1 .4 2.2.6 3.3.1 1.1.3 2.1.4 2.7zm-.2-2.6c.1.4.2 1.2.3 1.8 0 .2-.2-1.3-.3-1.8zm-.1 6.4c0-.1-.1-1-.1-1.1.1 1 0-.4.1 1.1 0 .5-.1-1.1 0 0zm-.5-3.7c0-.5 0-.9-.1-1.4.1.4.1.9.1 1.4zm-.1 5.2s0-.1 0 0c0-.1 0-.1 0 0zm-.3 12.7c0-.3-.1-.8 0-.9s.8-.3.9-.1 0 .6 0 .9c.2.5-.9.6-.9.1zm1.3 2.2s0 .1 0 0zm.1 2.5c0-.5.1-1.3.1-2.2 0 .6 0 1.3-.1 2.2zm.1-1.9v-1.1c0 .2.1.3 0 1.5-.1.3 0-.5 0-.4zm0-.3v-3.2c.1.9.1 3.2 0 3.2zm-.8-15c0-.3-.1-.8 0-.9s.8-.3.9-.1c.1.2 0 .6 0 .9.2.4-.9.5-.9.1zm1.1-2.7c-.1-1-.2-1.3-.3-2.1-.2-1.2.4 2.9.3 2.1zm-1.5-9.8c.2 1 .4 2 .6 3.3a7165183131591494 7165183131591494 0 0 1 .4 2.8c-.1-.3-.2-1.7-.4-2.9-.2-1.1-.4-1.9-.5-2.8-.1 0-.1-.1-.1-.4-.1-.3-.1-.6-.2-1 .1.5.1.8.2 1zm-.7-3.1c0 .2-.2-.6-.1-.4.2.9.5 2 .3 1.1 0 .1.1.4.1.4l.1.7c0 .2-.2-1-.2-.7.3 1.6.3 1.8.6 3.2 0 0-.2-.8-.3-1.5-.2-1.1-.2-1-.3-1.8-.1-.7-.2-.8-.2-1-.2-.8-.2-.6-.4-1.4.3.8.1-.1.4 1.4zm-.3 31.8c.1-.9.1-1.1.2-1.8-.1.5-.1.9-.2 1.8s0 .1 0 0zm.4 9v.5c0 .3 0 .4-.2.4-.3 0-.2-.2-.2-.3-.2-.6 0-.7.4-.6zm-.7-43.5c-.1-1.1-.4-2.6-.8-4.7.3 1.3.7 3.5.8 4.7zm-1.5 24.4c0-.2.1-.5.1-.8 0-.2-.1.9-.2 1.2.1 0 .1-.2.1-.4zm0 3.6h.7c.2.4.3.9-.2.9-.7.1-.5-.5-.5-.9zm-.4 25.7v.5c0 .3 0 .4-.2.4s-.2-.2-.2-.3c-.2-.5-.1-.7.4-.6zm-.7-29.3h.2-.2zm.1 7.4c-.1.8-.1 2.1-.2 3.2 0 .5-.1.9-.1 1.2 0-.4.1-.8.1-1.2.1-.9.1-2.2.2-3.2zm-.5-40.3c-.4-1.3-.2-.7-.5-1.7.2.5.5 1.7.6 2.1.3 1.1-.3-1-.1-.4zm.3 32.9zm0 0zm-.2-34.3c0 .1-.1-.2-.2-.5-.1-.2-.1-.5-.2-.7l.4 1.2zm-.5-.3c.3 1 .4 1.4.7 2.4-.2-.5-.4-1.6-1-3.1 0-.2.2.7.3.7zm-.4-.7c-.2-.4-.1-.2.2.7-.5-1.6-1.1-3.2-1.7-5.1.2.2 1 2.8 1.5 4.4zm-1.4-4.2c.8 2.4 1.7 4.9 2.3 7.2.1.2.1.4 0 0-.4-1.5-1.5-4.8-2.3-7.2-.5-1.3-.5-1.2 0 0zm-.2 69.4l.1-.1h.4c.4-.1.6.1.5.5v1.1c.1.4-.1.6-.5.5h-.4c-.1 0-.1 0-.1-.1-.2-.3-.6-.5-.6-.9-.1-.5.4-.7.6-1zm-1.1-54.1c0-.3-.1-.7-.1-1.1-.1-.1.1 1.3.1 1.1zm-.4 38.1h.7c.2.4.3.9-.2.9-.8.1-.6-.5-.5-.9zm-.4 27.1l-.4 1 .4-1c-.2.5 0-.1 0 0zm-.3-4.3v.5c0 .3 0 .4-.2.4s-.2-.2-.2-.3c-.2-.5 0-.7.4-.6zm-.3 5.6c.1-.2-.5 1.4-.1.4-.1.3-.3.9-.5 1.4 0 0 .4-.9.3-.7l.3-1.1zm-.4-22.6v.5c0 .3 0 .4-.2.4s-.2-.2-.2-.3c-.2-.5-.1-.7.4-.6zm-.4-61.2l-.3-.9h.2l.1.9zm0-.9h-.2.2zm0 78.1c.9.5.2 1-.2 1.5-.3-.2-.5-.4-.8-.6 0-.7.3-1.3 1-.9zm-1.2-83.8s.1 0 0 0c.1 0 .1 0 0 0 0 0 0-.1 0 0zm.5 66.4v.5c0 .3 0 .4-.2.4s-.2-.2-.2-.3c-.2-.5 0-.7.4-.6zm-.8 10.9c0-.2 0-.4.1-.6 0-.1.1-.2.1-.2v-.1c0-.1 0-.1.1-.2 0 .1 0 .1-.1.2-.1.2-.1.4-.1.7-.1.1-.1.1-.1.2zm.1 18.6c.3-.7.2-.5.3-.7.2-.5.9-2 .8-1.7-.6 1.4-1 2.2-1.4 3 .1-.1.2-.4.3-.6zm-.3-18.8zm-.5 20.5c.3-.7.8-1.9 1.1-2.3-.4.9-.5 1.1-1.1 2.3 0 .1-.5 1.2-.4 1 .3-.6.3-.7.6-1.3.3-.8.1-.3-.2.3zm.2-.4c-.2.4-.4.9-.8 1.7-.1.2.6-1.2.8-1.7zm-.8 1.8c-.1.2-.2.5-.4.8-.7 1.4-1.6 3.2-2.3 4.5.1-.2.4-.7.3-.6-.3.6-.6 1.3-.9 1.7-.3.5-.5.8-.5.8-1 1.8-1.7 3-2.6 4.5.1-.1-.1.2-.4.6 0 .1.7-1 .4-.6-.7 1.1-.9 1.4-1.4 2.2-.4.6-.6.9-1.2 1.9.1-.2.3-.4.4-.6.7-1.1.5-.8 1.6-2.6-.3.5-.5.8-.8 1.3.1-.2.4-.6.6-.9.1-.2.2-.3.4-.7.4-.7.4-.6.4-.6.4-.8.4-.6.9-1.6.2-.3.2-.4.4-.7l1.8-3.2c.3-.5.2-.4 0 0-.2.3-.5.8-.6 1 .1-.1.6-1.1.5-.9.3-.6.1-.2.3-.7.9-1.7 1.1-2.1 1.5-2.9.3-.6.7-1.3.9-1.9.5-.3.6-.5.7-.8zm-1-16.1c0-.1 0 0 0 0 0-.1 0-.1 0 0zm.6 17c-.2.4-.9 1.7-.7 1.3-.4.7-.1.2 0 0 .3-.7.4-.9.7-1.3zm-.7-8.3c0 .3 0 .4-.2.4s-.2-.2-.2-.3c-.1-.4.1-.6.5-.5-.1.1-.1.2-.1.4zm-.3-10.4c.1.2 0 .6 0 .9.2.4-.9.5-.9.1 0-.3-.1-.8 0-.9.2-.1.8-.2.9-.1zm-1.7-102s-.1 0 0 0c0 .1.1.3 0 0zm-.1.1c.5 1 .9 1.7 1.4 2.6-.4-.7-.7-1.3-1.1-2.1-.5-.9-1.1-1.9-1.7-3.1.3.8.9 1.7 1.4 2.6zm0 8.1c.2.3-.2-.3-.7-1.2-.5-.8-1.1-1.8-1.4-2.2.3.6 1.3 2.1 2.1 3.4zm-1.8-2.5c-.5-.8-1.1-1.8-1.4-2.2.4.5 1.4 2.1 2.1 3.4.2.2-.2-.4-.7-1.2zm-1.3-3.1c-.1-.3.6 1.3.6 1.2-.3-.5-.3-.6-.6-1.2zm-.4-8.6c.1.2.3.5.4.7 0 .1.1.1.1.2-.2-.3-.3-.6-.5-.9-.2-.3-.4-.7-.6-1-.7-1.1-1.4-2.2-1.9-3 .5.9 1.6 2.5 2.5 4zm-1 4.6c0-.1 0-.1-.1-.2.1.1.1.1.1.2h.1-.1c.1.2.1.2.1.3l.1.4.4 1.2-.3-1.1-.1-.4c-.1-.2-.2-.3-.2-.4zm-.1-.6c-.3 0-.2-.2-.2-.3-.1-.4.1-.6.5-.5v.5c-.1.2 0 .3-.3.3zm-.7 1.1zm-.4-1.4l-.3-.3.3.3zm-2.2-6.6c.1-.1.8-.3.9-.1.1.2 0 .6 0 .9.2.4-.9.5-.9.1 0-.3-.1-.7 0-.9zm-5.4-11.5c.1.2.3.3.4.5l.1.1c.9 1.1 1.7 2.1 2.4 3.1-.2-.3-.5-.6-.6-.8-.5-.6-1.1-1.4-1.8-2.3v.2c.1.4-.1.6-.5.5v-.5c0-.3 0-.4.2-.4h.1c-.2-.3-.4-.5-.6-.8-.9-1.1-1.9-2.2-2.4-2.8.4.6 1.7 2 2.7 3.2zm0 9.6c.2.3.4.5.6.7-.2-.2-.4-.5-.6-.7-.7-.8-1.8-2.1-2.5-2.9.4.5 1.6 1.8 2.5 2.9zm-.8-10.2l.2.2c-.1-.1-.1-.2-.2-.2zm1.8 11.6c.2.3.4.5.6.7-.2-.2-.4-.4-.6-.7-.7-.8-1.8-2-2.5-2.9.5.6 1.6 1.8 2.5 2.9zm-3.3-8.6v.5c0 .3 0 .4-.2.4-.3 0-.2-.2-.2-.3-.2-.6 0-.7.4-.6zm-.8 2.1c-.2-.2-.4-.4-.6-.8 0-.1.3.4.6.8zm-1.7-10.1l.1.1c-.2-.2-1.7-1.8-2.1-2.3.7.8 1 1.2 2 2.2zm-.5 6.9c-.1 0-.1 0 0 0zm-.7.5zm0 0zm0 .1c-.1.1-.1.1 0 0zm0 .1v.1h-.1l.1-.1zm0-.1zm.1-.4zm0 0zm0 .5s0-.1 0 0c0-.1 0-.1 0 0zm.3 1.6c.6.6-1.7-1.7-2.3-2.4.4.4 1.3 1.3 2.3 2.4zm-.2-2.2zm.1.1zm-.1.2zm.2.1zm0-.1c0 .1 0 0 0 0zm0-.3zm.1.1zm-2.4-8.9c0-.3 0-.4.2-.4s.2.2.2.3c.1.4-.1.6-.5.5.1-.1.1-.3.1-.4zm2 10.8c.2.2.8.9 1.3 1.3.4.4 1.3 1.5 2.2 2.5.5.5.8.9 1.2 1.4.4.5.8 1 1.2 1.4.4.5.7.9 1.1 1.3.7.9 1.3 1.7 1.9 2.4.5.6 1 1.3 1.4 1.9 1 1.3 1.9 2.6 2.8 3.8l-.6-.9c.1.2.5.8 1 1.5.3.4.7 1 1.1 1.6v-.1c-.4-.6-.8-1.2-1.3-1.8.4.6.8 1.1 1.2 1.7-.2-.4-.4-.8-.6-1.3 0-.1.2.4.3.7l.3.6c.4.6.8 1.2 1.2 1.9-.4-.5.5.9-.4-.6.3.5.9 1.4 1.2 1.8 0-.1-.7-1.2-.5-.9l1 1.5c-1.3-2 .2.3.7 1.2 0 0-.4-.7-.6-.9-.5-.7 1.1 1.7 1.5 2.5.1.2.4.7.3.6.6 1 1.4 2.4 1.9 3.4-.9-1.6-2-3.5-2.2-3.8-.1-.3-.2-.3-.3-.6-.6-.9.2.3 0 0-.7-1.1-.9-1.5-1.6-2.4-.2-.3.4.7.8 1.2.2.3-1.3-2.1-1.5-2.4-.6-.9-.5-.7-1.1-1.8-.1-.1-.1-.2-.2-.2v.1c.1.1.1.1.1.2.2.4.3.5.6.9.3.5.8 1.3 1.5 2.4l-2.1-3.3 1 1.5c-1.3-2 .2.3.7 1.2 0 0-.4-.7-.6-.9-.5-.7 1.1 1.7 1.5 2.5.1.2.4.7.3.6.6 1 1.4 2.4 1.9 3.4-.9-1.6-2-3.5-2.2-3.8-.1-.3-.2-.3-.3-.6-.6-.9.2.3 0 0-.7-1.1-.9-1.5-1.6-2.4-.2-.3.4.7.8 1.2.2.2-.9-1.5-1.4-2.2 0 .1.1.1.1.2.2.3.4.7.7 1.1-.2-.4-.5-.7-.7-1.1 0 .1.1.2.1.3 0-.1-.1-.2-.2-.4-.6-1-1.2-2-1.9-2.9-.9-1.3-1.9-2.7-2.8-4 .1.2.2.2.2.2-.8-1-2.2-2.7-3.1-4 .1.2.2.3.2.3-.6-.7-.7-.9-1.1-1.4.1.2.2.3.4.5-1.1-1.3-2.8-3.3-4.3-4.9.3.3.3.3-.2-.3s-1.1-1.1-.5-.5c-.1 0-1.1-1.1-1.5-1.6-.5-.5-.9-1-1.4-1.6.7.7 1 .9 2.1 2.1.2.2.8.9 1.2 1.3-.3-.3-.5-.6-.8-.9.3.3.3.3-.2-.3s-1.1-1.1-.5-.5c-.1 0-1.1-1.1-1.5-1.6-.5-.5-.9-1-1.4-1.6.7.9 1 1.2 2.2 2.3zm-5.9-16.3l1 1c-.7-.6-1.1-1.1-1-1zm-2.5-2.2c.7.6 1.5 1.3 2.3 2.1.6.6 2 1.9 2.9 2.8l.2.2.1.1.2.2c.5.6.7.7 0 0l-.2-.2c-1.5-1.3-3.7-3.5-5.5-5.2-.6-.5-1.1-1-1.5-1.3.4.4.9.8 1.5 1.3zm-2.3 182.6l.7-.7-.4.4c-.2.2-.3.4-.3.3zm.8 3.7c0 .3.1.8 0 .9-.1.1-.8.3-.9.1-.1-.2 0-.6 0-.9-.2-.4 1-.5.9-.1zm-1 13.4l-.1.1c-.1.1-.2.2-.4.3.2-.1.3-.3.5-.4zm-1.2.8l.8-.7c-.2.2-.3.2-1.1 1l.3-.3zm-1.9-199.2c.4.4 1.5 1.4 1.4 1.2-1.2-1.1-1.6-1.4-3.1-2.7.3.3 1.2 1.1 1.7 1.5zm-2.4 203c-1.2.9-1.8 1.4-2.9 2.3.6-.4 1.3-1.1 2.3-1.8.1-.1.3-.3.6-.5zm-3.2-13.9c0 .1 0 .1 0 0zm0-.2c-.1 0 0 0 0 0zm-.1-.1zm-.1-.2zm0 0zm0 .2zm0 .2zm1.9 15c-.7.6-1.5 1.2-2.4 1.9.1-.1.3-.2.4-.3-.2.1-.7.5-.6.4.6-.5.4-.3.6-.4.5-.5 1.1-1 2-1.6zm-2.1-15.3c0 .1 0 .1 0 0zm0 .2zm0 0zm-.1-.4c.1 0 0 0 0 0zm0 0zm0 .1zm-.1 0zm-.1-.1zm-.1 0l.1.1v.1l-.1-.2zm-.1 5.5c.1-.1-.7.5-.9.7 0 0 .5-.4.9-.7zm-4.5-204.2s-.3-.2-.5-.4-.5-.4-.4-.3l.9.7zm-5.3-3.4c-.1 0-.8-.5-1.1-.8-.1 0 .9.6 1.1.8zm-2.7.4c-.7-.4-1.2-.7-1.8-1 .7.4 1.3.8 1.8 1zm-1.2 228.4c.1-.1.2-.1.4-.2.4-.3.1-.1-.4.2-.4.2-.8.5-1.2.7.1-.1.7-.4 1.2-.7zM195 20c-.2-.1-.5-.3-.8-.5.2.1.5.3.8.5zm-3.4-1.9c.5.2 1.4.7 2 1-.6-.3-1.5-.7-2-1zm1.7-1.6c-.4-.2-1.1-.6-1.9-1 .2.1 1.2.7 1.9 1zm-1.4-.2c0 .3.1.8 0 .9-.1.1-.8.3-.9.1-.1-.2 0-.6 0-.9-.1-.4 1-.5.9-.1zm-1.7-3.7c.1 0 .1.1.2.1-.1-.1-.2-.1-.2-.1zm-.1 1.4c.1-.1.8-.3.9-.1.1.2 0 .6 0 .9.2.4-.9.5-.9.1s-.1-.8 0-.9zm.2 226.5l-1 .5s.5-.2 1-.5zm-3 6.7l.1-.1h.4c.4-.1.6.1.5.5v1.1l.1-.1h.4c.4-.1.6.1.5.5v1.1c.1.4-.1.6-.5.5h-.4c-.1 0-.1 0-.1-.1-.2-.3-.6-.5-.6-.9 0-.2 0-.3.1-.4h-.5c-.1 0-.1 0-.1-.1-.2-.3-.6-.5-.6-.9.1-.6.6-.8.7-1.1zm-2.7-236.9c.1 0 .1 0 .2.1-.1 0-.3-.1-.4-.1h.2zm1.6.8c1.2.4.5.2.7.3-1.5-.5-1.3-.5-2.5-.9 0-.1 2.1.7 1.8.6zm-1.7 232s.1 0 0 0c-.1.1-.2.1-.2.2.1-.1.2-.1.2-.2zm-.2.2zm-1.8 7.5zM179.6 8.7c0-.1 0-.1 0 0 0-.1 0-.1 0 0zm2.3 231.4l-1.4.7c-.5.3-1 .5-1.6.7 1-.4 2.4-1.1 3-1.4zm-7.1 19c0 .3 0 .4-.2.4-.3 0-.2-.2-.2-.3-.1-.4.1-.6.5-.5 0 .1-.1.3-.1.4zm-1.1-253c.4.1.7.2 1.1.3-.2-.1-.7-.2-1.1-.3-.2-.1-.5-.1-.7-.2-.6-.1 0 0 .7.2zm-1.7-.2c.3.1.5.1.7.2-.2-.1-.5-.2-.7-.2zm-.1-.2c-.4-.1-1.5-.4-2.2-.5.2 0 1.4.2 2.2.5zm-1.6 3.5c.7.2 1.4.5 2.1.7-.5-.2-1.8-.6-2.9-.9.2 0 .5.1.8.2zm-3.9-4.6c0-.3 0-.4.2-.4.3 0 .2.2.2.3.1.4-.1.6-.5.5 0-.1 0-.3.1-.4zm-.6 251.8v.5c0 .3 0 .4-.2.4-.3 0-.2-.2-.2-.3-.2-.5 0-.7.4-.6zm-2.8-3.9c0 .3.1.8 0 .9-.1.1-.8.3-.9.1-.1-.2 0-.6 0-.9-.2-.5.9-.6.9-.1zm-81-10.9c.9.4 2.4 1 2.9 1.3-.6-.2-1-.4-1.4-.6-.5-.2-.9-.4-1.5-.7zm1.1-220.7c-1 .4-3.6 1.7-3.3 1.5.9-.4 1.8-.9 3.3-1.5.2-.1.3-.1.3-.1-.1 0-.2.1-.3.1zm2 233.1c-.5-.2-1.1-.4-1.6-.7-.2-.1-.3-.2-.5-.2-.4-.2-.7-.3-1-.5.3.1.7.3 1 .5 1.6.7 3.6 1.5 5.1 2.1-.9-.4-2-.8-3-1.2zm.6-7.7c0-.3-.1-.8 0-.9.1-.1.8-.3.9-.1.1.2 0 .6 0 .9.2.5-1 .6-.9.1zm1 1.5c0-.3-.1-.8 0-.9.1-.1.8-.3.9-.1.1.2 0 .6 0 .9.2.4-.9.5-.9.1zm5.9 9c-.8-.3-1.7-.6-2.9-1-.5-.2-.8-.3-.9-.3l.9.3c1.2.4 3.1 1 2.9 1zm-3.2-.3l.6.3-.6-.3zm1.1 1.5l.6.3c-.2-.2-.4-.3-.6-.3zm.4-.7c.1 0 .1 0 .2.1.2.1.4.2.7.3-.4-.1-.8-.3-.9-.4zm1.1 1.5c.1 0 .1 0 .2.1.2.1.4.2.7.3-.4-.2-.8-.4-.9-.4zm.4-9.6v-.5c0-.3 0-.4.2-.4.3 0 .2.2.2.3.2.6 0 .7-.4.6zM93 11.8c0-.3-.1-.8 0-.9.1-.1.8-.3.9-.1.1.2 0 .6 0 .9.1.5-1 .6-.9.1zm2.3 245.9c-.7-.2-1.4-.5-2.1-.7.5.2 1.8.6 2.9.9-.2 0-.5-.1-.8-.2zm8.1 4.6c-1.1-.4-1.8-.6-2.8-.9 1.1.3 3 1.1 5.5 1.7-.2-.1-1.6-.5-2.7-.8zm-3.8-2.4c1.1.3 3 1.1 5.5 1.7-.3-.1-1.7-.5-2.8-.8-1-.3-1.8-.6-2.7-.9zm17.3 6.5c-.3 0-.5-.1-.7-.1.2 0 .5.1.7.1zM118 252c.1 0 0 0 0 0h-.1.1-.1v-.1l.1-.1v.2c0-.1 0-.1 0 0 0-.1 0-.1 0 0zm0 .3zm0-.2c0-.1 0 0 0 0zm0 .5zm-.1-.2c0 .1-.1.1 0 0zm0-.1zm0 1.6h.2-1 .8zm.2-1.5zm0 0zm0 0c0 .1 0 .1 0 0 0 .1 0 .1 0 0zm0-.4zm0 .1zm0 0c.1 0 .1 0 0 0 .1 0 0 0 0 0zm.1.4zm-.1.1c.1 0 .1 0 0 0 .1.1.1 0 0 0zm.1-.1zm0 0zm0-.1zm0 0s0-.1 0 0c.1 0 .1 0 0 0zM117.3 6c1.1-.2 2.3-.4 3.5-.6 1.2-.2 2.2-.3 2.9-.4-.4.1-1.8.3-3.4.5-.4.1-3.2.6-3 .5zm3.6-.9c.5-.1 1.2-.2 1.9-.3.2 0-1.3.3-1.9.3zm.7 12v-.5c0-.3 0-.4.2-.4.3 0 .2.2.2.3.2.6 0 .7-.4.6zm1.2 237.2zm0 0zm0 .3v-.2.2zm-.1-246.4c-.1-.2 0-.6 0-.9-.2-.4.9-.5.9-.1 0 .3.1.8 0 .9-.2.1-.8.2-.9.1zm1 254v.5c0 .3 0 .4-.2.4s-.2-.2-.2-.3c-.2-.6-.1-.7.4-.6zm-.7 1.3c.4 0 .7.1.9.1-.3-.1-.7-.1-.9-.1zm1.7.5c0 .3 0 .4-.2.4-.3 0-.2-.2-.2-.3-.1-.4.1-.6.5-.5 0 .1-.1.3-.1.4zm2.6 2.4h-.3c.2 0 .4 0 .6.1-.1-.1-.2-.1-.3-.1zm-2.7-3.1c.7 0 2.7.2 3.7.3-1-.1-2.6-.2-3.7-.3zm2.2-10.5v.2-.2zm1.3-250.1c.4 0-1.2.1 0 0-.2.1-1.1.1-1.2.1 1.1 0-.4.1 1.2-.1zm1.4 0c-.6.1-1.7.1-1.5.1l1.5-.1c.1 0-.7 0 0 0zm-2.3 252v-.5c0-.3 0-.4.2-.4.3 0 .2.2.2.3.2.6 0 .7-.4.6zm2 12.2h.5-.5zm.4-3.3h-.6.6c1.4 0 3.3.1 4.2.1-.7 0-3-.1-4.2-.1zm3.9-249.3c0 .3.1.8 0 .9-.1.1-.8.3-.9.1-.1-.2 0-.6 0-.9-.1-.5 1-.6.9-.1zm-.6 237.3c.1.2 0 .6 0 .9.2.4-.9.5-.9.1 0-.3-.1-.8 0-.9s.8-.3.9-.1zm5.5-239c0 .3 0 .4-.2.4-.3 0-.2-.2-.2-.3-.1-.4.1-.6.5-.5-.1.1-.1.3-.1.4zm0-10.4h-1.8c-1.1 0-1.5.1-2.6.1 1.4-.1 3.3-.2 4.2-.2-1.1.1-.6 0 .5 0-.1.1-.2.1-.3.1zm.6 0h.5-.5zm.8 265c.5 0 .4 0 0 0zm2.2-7.5c0-.3-.1-.8 0-.9.1-.1.8-.3.9-.1.1.2 0 .6 0 .9.2.5-.9.6-.9.1zm-.3-256.4c.3 0 .7.1.9.1-.4 0-.7-.1-.9-.1zm7.7 3.4c-.1-.2 0-.6 0-.9-.2-.4.9-.5.9-.1 0 .3.1.8 0 .9-.2.2-.8.3-.9.1zm1.4 256.3c-.3 0-.7.1-1.1.1 1.1-.1 3.8-.5 4.4-.6 1.2-.1-2.7.4-3.3.5zm2.9-12.2c0 .3.1.8 0 .9-.1.1-.8.3-.9.1-.1-.2 0-.6 0-.9-.2-.5.9-.6.9-.1zm-.3-247h-.8.5c1.2.1 2 .2 3.3.3-.7 0-1.7-.1-3-.3zm.6 248.5c-.4.1-1.4.3-2.1.3.2 0 1.4-.1 2.1-.3zm.5-5.9c0-.3-.1-.8 0-.9.1-.1.8-.3.9-.1s0 .6 0 .9c.2.4-.9.5-.9.1zm1.7 5.2c.1 0 .9-.2 1.3-.3 0 .1-1 .3-1.3.3zm2.6-247.2c.2 0 .3 0 .5.1-.1-.1-.3-.1-.5-.1-.8-.1-1.6-.2-1.7-.2.6.1 1.2.1 1.7.2zm-1.9-1.7c-.2 0-.3-.1-.5-.1.1.1.2.1.5.1zm.9.3c-.8-.1-1.6-.2-1.7-.2.6 0 1.1.1 1.7.2zm-4.2-.6c-.4-.1-.4-.1-.9-.1-.1-.1 1 .1.9.1zm-1.5 0c1.2.1 2 .2 3.3.3-.7-.1-1.7-.2-3-.3h-.8.5zm-.7 250.4l-1.1.2s.3-.1.6-.1.6-.2.5-.1zm-.9-248.2c.2 0 .4.1.6.1-1.2-.2-2.5-.3-3.8-.5 1 .1 2 .3 3.2.4zm-2.3-3.3c-.3 0-.6-.1-.9-.1.3.1.6.1.9.1zm-1.1-.1h-.9.9zm1.4 261.8c-.2 0-.4 0-.5.1-.6.1-1.5.1-2 .2.4-.2 1.5-.2 2.5-.3zm-4.5-13.2v.5c0 .3 0 .4-.2.4s-.2-.2-.2-.3c-.2-.6 0-.7.4-.6zm-.9-247.7h-3c-.7 0-.5 0-1.9.1 1.1-.1-1 0 .8-.1-.2 0-1.9.1-1.5 0 1.4-.1 3.2 0 5.3 0h.3zm-.7 0h-4.2c-.6 0-1.3.1-1.1 0-.7 0-1.9.1-1.5 0 1 0 2.3-.1 3.4-.1h2.3-2.2c1.8 0 1.7 0 3.3.1h-.7c0-.1.3 0 .7 0zm-4.8-.1c1.5-.1 3.3 0 4.2 0h-3.4c.7 0-2.5.1-3.8.2-.3 0 1.9-.1 3-.2zm-5.8.4c.5-.1 1-.1 1.5-.1.9 0 2.4-.1 2.3-.1-.7 0-.7 0-1.9.1-.3 0 1.5-.1 1.1 0-.5 0-1.4.1-2.1.1h-.9c-.6.1-2.1.2-1.9.2.4 0 1.1-.1 1.5-.1.2-.1.4-.1.4-.1zM130.3.9s-1.3.1-1.1.1l1.1-.1zm-1.7.1c-.1 0-1.4.1-2.1.1.4 0 1.5 0 2.1-.1zm-2.2-.7v.5c0 .3 0 .4-.2.4s-.2-.2-.2-.3c-.2-.6-.1-.7.4-.6zm-2.1 1.4c-.1 0-.9.1-1.3.2-.1-.1 1-.2 1.3-.2zm.8 2.8c.2 0-2.2.3-2.3.3-.3.1-1.8.2-3 .4-1.1.2-2 .4-3 .6 0 0-.2 0-.4.1 1-.2 2.1-.4 3.4-.6 1.1-.2 2-.3 3-.5.7-.1 1.5-.2 2.3-.3zm-3.4-1.1c.2 0-1.3.2-1.9.3.5-.1 1.3-.2 1.9-.3zm-4 .5c.6-.1 1.5-.1 2-.2-.6.1-1.6.1-2.6.2h.6zm-1.4.7c1.1-.2 2.3-.4 3.5-.6 1.2-.2 2.2-.3 2.9-.4-.4.1-1.8.3-3.4.5-.5 0-3.2.6-3 .5zm-.9 255.7c.1-.1.8-.3.9-.1.1.2 0 .6 0 .9.2.4-.9.5-.9.1-.1-.3-.1-.8 0-.9zm-.9 1.9c1.2.2 2.5.3 3.8.5-1-.1-2.1-.3-3.3-.4-.1-.1-.3-.1-.5-.1h-.2c-.1 0-.2 0-.4-.1-.8-.1-1.7-.3-2.6-.5-.6-.1-.7-.1-.7-.1l3.3.6c.3 0 .5 0 .6.1zm-3.8-8.8c.6.1.7.1 1.4.1.3.1-1.5-.1-1.4-.1zm1.2-238.2c.1-.1.8-.3.9-.1.1.2 0 .6 0 .9.2.4-.9.5-.9.1 0-.3-.1-.8 0-.9zm-.8 5.3c0 .3.1.8 0 .9-.1.1-.8.3-.9.1-.1-.2 0-.6 0-.9-.2-.4.9-.5.9-.1zm-3.8-16.1zm0-.3v.1-.1zm0 0v.1-.1zm-.1-.1zm-.2-.1c-.1.1-.1.1 0 0zm-.5 4.3c-.7.2-.5.1-1.4.4-.9.2.4-.1.7-.2 1.6-.4.9-.3 2.6-.7-.7.2-1.8.5-2.9.9-.8.2-.9.3-1.8.5-.6.1 3.2-1 2.8-.9zm-3.8 6.2c0-.3-.1-.8 0-.9.1-.1.8-.3.9-.1.1.2 0 .6 0 .9.1.5-1 .6-.9.1zm-2.6-1.3c1.5-.4 2.3-.6 3.5-.9-1.1.3-2.8.8-3.5.9zm-.3-2.6V10c0-.3 0-.4.2-.4.3 0 .2.2.2.3.2.5 0 .7-.4.6zm2-4.9v.1-.1zm-.9-.3s-.6.2-1.1.3c0-.1.6-.2 1.1-.3zm-.8 7.7c-.2 0-.4.1-.6.2.2-.1.4-.2.6-.2zm-2.4-1.5c.4-.1.9-.2 1.2-.3-.4.1-1.2.3-2.1.6.2 0 .6-.1.9-.3zm-.6 246.7c1.5.4 2.8.8 4.1 1.2.4.1.9.2 1.4.3 1.1.3 2.3.5 3.4.8.7.2 1.5.4 2.3.5h.2l1.5.3c-.5-.1-.9-.2-1.5-.3h-.2c-.2 0-.3-.1-.5-.1-.7-.2-1.5-.3-2.2-.5-1-.2-2-.5-3-.7-.3-.1-.6-.1-.9-.2-.2 0-.3-.1-.5-.1-.1 0-.2 0-.2-.1-1.1-.3-2.4-.7-3.7-1.1-.2-.1-.4-.1-.7-.2.2.1.4.2.5.2zm-.5-243.5v.5c0 .3 0 .4-.2.4s-.2-.2-.2-.3c-.2-.6-.1-.7.4-.6zm-.3 235.7c-.1 0-.3-.1-.4-.1.1 0 .2 0 .4.1zM95 7.7c-.3.1-.6.2-.9.2.1 0 .5-.1.9-.2zm-1.8 1c.5-.2.8-.2 1.1-.3-.5.1-.8.2-1.1.3-.1 0 .1 0 .3-.1-.3.1-.9.3-1.4.4.3-.1.7-.2 1.1-.3zm-2.4-.9c0-.3 0-.4.2-.4s.2.2.2.3c.1.4-.1.6-.5.5.1-.1.1-.3.1-.4zm-6.7 12.7c1.6-.7 4.1-1.8 6-2.4-1.6.5-4.2 1.6-6 2.4zm1-7.7c.1-.1.8-.3.9-.1s0 .6 0 .9c.2.4-.9.5-.9.1-.1-.3-.1-.7 0-.9zm-1.2-2.7c.1-.1.3-.1.4-.2-.2.1-.4.2-.6.2h.2zm5.2 6.5c-1.6.6-4.3 1.7-6 2.4 1.6-.6 4-1.7 6-2.4zm-6.8 2.7c-.1 0-.2.1-.3.1-1 .4-3.6 1.7-3.3 1.5.9-.4 1.8-.9 3.3-1.5.2 0 .3 0 .3-.1zm-3-7.1c.5-.2.9-.4.7-.3 1.1-.5.5-.2.6-.3-1.4.6-1.3.6-2.3 1.1 0-.1.5-.3 1-.5zm-.2.5s-.1.1-.3.2c-.2.1-.4.2-.7.3-.1 0 .8-.4 1-.5zm-1 8.6c-.4.2-1.3.6-2.2 1.1l-1.2.6 1.2-.6c.7-.4 1.4-.7 2.2-1.1zm-3.3-2.4v.5c0 .3 0 .4-.2.4-.3 0-.2-.2-.2-.3-.2-.5 0-.7.4-.6zm-.3 6.7v.5c0 .3 0 .4-.2.4s-.3-.3-.3-.4c-.1-.5.1-.6.5-.5zm-2.3-8.7c-.1 0-.1.1-.2.1.1 0 .2 0 .2-.1zm-2.8.3c.4-.2.8-.5 1.2-.7-.1.1-.7.4-1.2.7-.1.1-.3.2-.4.2-.4.3-.1.1.4-.2zm-10.9 6.9c-.1.1-.2.1-.2.2.1-.1.2-.1.2-.2zm.1 0c-.9.7-1.7 1.2-1.8 1.2.5-.4.6-.5 1.2-.9.3-.1.5-.2.6-.3zm-3.3 2.4c.2-.2.6-.5 1-.8.4-.3.9-.6 1.2-.9.1-.1.3-.2.4-.3-.1.1-.3.2-.4.3l-1.2.9c-.3.2-.6.5-1 .8-.1.1-.3.2-.3.2.1-.1.2-.2.3-.2zm-.8.6c-.6.4-1.3 1.1-2.3 1.8 0 0-.2.2-.6.4 1.1-.8 1.8-1.3 2.9-2.2zm-4.3 15.2c.7-.6 1.9-1.6 2.7-2.4-.5.4-2.1 1.7-2.7 2.4zM52.8 56v.5c0 .3 0 .4-.2.4s-.2-.2-.2-.3c-.2-.5-.1-.7.4-.6zm-1.1-1.4v.5c0 .3 0 .4-.2.4-.3 0-.2-.2-.2-.3-.2-.5 0-.7.4-.6zm.1-16.1c-.5.5-2 1.7-2.7 2.4.6-.7 1.8-1.7 2.7-2.4zm-.2-1.3c.3-.2.6-.5.8-.7-.2.2-.4.3-.8.7zm-2 176.7c.1.2 0 .6 0 .9.2.4-.9.5-.9.1 0-.3-.1-.8 0-.9s.8-.3.9-.1zm.9 11.5s-.9-.7-1.1-.9c.1.1.8.6 1.1.9zm2.4-189.1zm0-1c.1-.1.3-.2.5-.3-.2.1-.3.2-.5.3zm-1.8 1.9l.2-.2c.1-.1.2-.2.3-.2-.5.5-.7.6-1.1 1 0-.1.6-.5.6-.6zm-.7 1.4l-.4.4c.2-.2.4-.3.6-.6-.1.1-.2.1-.2.2zm-1.6-6.5c.7-.6 1.5-1.2 1.4-1.1-.8.7-1.6 1.2-1.4 1.1zm-.3 9.9c-.2.1-.2.2-.2.2.1-.1.1-.2.2-.2zm-.4 165.4h.7c.2.4.3.9-.2.9-.7.1-.5-.5-.5-.9zm-3-161c.1-.1.8-.3.9-.1s0 .6 0 .9c.2.4-.9.5-.9.1 0-.3-.1-.7 0-.9zm2.3 176.9c-.3-.3-1.2-1-1.6-1.4 0 0 1 .9 1.6 1.4zm-2.5-2.2c.2.2.5.4.4.4l-.9-.8s.2.2.5.4zm-1.7-6.9l-.1.1.1-.1zm-.2.2zm0 0zM42 38.3c-.2.2-.3.3-.3.4l1.1-1.1-.6.6-.8.8-.4.4c-.7.8-1 1.1-1.8 1.9.9-1 2.2-2.4 2.8-3zm.4 176.8zM40.8 43.3h.7c.2.4.3.9-.2.9-.7.1-.5-.5-.5-.9zm.3 95.9v.5c0 .3 0 .4-.2.4-.3 0-.2-.2-.2-.3-.2-.6-.1-.7.4-.6zm1 1.4v.5c0 .3 0 .4-.2.4-.3 0-.2-.2-.2-.3-.2-.6 0-.7.4-.6zm-2.9-92.2c0 .2-.1.3-.3.4-.1.1-.1.2-.2.2l.2-.2h-.2c-1 .1-.8-.7-.7-1.3h1c.2.3.3.7.2.9zM38.6 80h-.4c-.1 0-.1 0-.1-.1-.2-.3-.6-.5-.6-.9 0-.2 0-.3.1-.4h-.5c-.1 0-.1 0-.1-.1-.2-.3-.6-.5-.6-.9 0-.5.4-.6.6-.9l.1-.1h.4c.4-.1.6.1.5.5v1.1l.1-.1h.4c.4-.1.6.1.5.5v1.1c.2.3 0 .4-.4.3zm-1.5-24c.4-.4.8-1 1.1-1.3-.3.4-1.1 1.2-1.6 2-.1.1.1-.2.5-.7zm.4-13.1c.4-.5.8-.9 1.2-1.3-.3.4-.7.7-.5.6l-.5.5c-.1 0-.1.1-.2.2s-.2.2-.2.3c0-.1 0-.2.2-.3zm-.1.1c.1-.1.2-.3.3-.3.3-.3.7-.7 1-1.1.6-.6 1.6-1.7 1.5-1.6l-1.3 1.3c-.2.2 1-1.1.7-.8-.7.7-2.4 2.6-2 2.1-.4.4-1.3 1.5-1.2 1.4.3-.2.7-.6 1-1zm-.6 5.4c0 .3.1.8 0 .9-.1.1-.8.3-.9.1-.1-.2 0-.6 0-.9-.2-.5.9-.6.9-.1zm-.6-3.9c-.4.4-1.1 1.2-1 1.1l1-1.1s-.4.5 0 0zm-.9 1c.3-.3-.8.9 0 0-.1.1-.7.8-.7.9.6-.8-.3.3.7-.9zm-2.2 1.7c-.4.5-1.8 2-1.7 1.9.8-.9 1.7-2 1.7-1.9zm-1.8 3.1c.2-.2-.8 1-1.1 1.5.3-.4.7-1 1.1-1.5zm-1.4 2.1c.8-1.1 1.6-2 2-2.6-.2.3-1.1 1.4-2 2.6-.1.2-.3.4-.4.5.2-.2.3-.4.4-.5zm.2 9.8c0-.3-.1-.8 0-.9.1-.1.8-.3.9-.1s0 .6 0 .9c.1.5-1 .6-.9.1zm-.4 137.9c.4.5.4.5.8 1.1.2.3-.9-1.1-.8-1.1zm0-131.3v.5c0 .3 0 .4-.2.4s-.2-.2-.2-.3c-.2-.5-.1-.7.4-.6zM28 52.3c0-.3 0-.4.2-.4.3 0 .2.2.2.3.1.4-.1.6-.5.5 0-.1 0-.3.1-.4zm-.4 1.9zm-1.4 1.1zm-.1-.1l.1.1-.1-.1.1.1-.1-.1c0 .1 0 .1 0 0zM23 60.4l.1.1-.1-.1zm-.1 0zm-1.4 1.2s-.3.6-.6 1c0 0 .4-.6.6-1zm-5.7 11c.2-.4.7-1.3.7-1.3l-.4.6c-.6 1-.5 1-.8 1.6-1.5 3 .2-.4.5-.9zm-5.1 10.2s-.1.2-.1.4c-.1.2-.2.5-.3.7 0 .2.3-.8.4-1.1zm-2.9 24.3c.4-1.7.9-3.5 1.3-5-.5 1.7-.9 3.3-1.3 5zm1.4-4.8c-.2.7-.5 1.8-.7 2.8 0 .1.1-.3.2-.9.1-.6.3-1.3.5-1.9zm-.9 3c-.2.8-.3 1.5-.6 2.6 0 .1 0 .2-.1.3 0-.1 0-.2.1-.3.2-.7.5-1.9.6-2.6zm-.6-7.1c0 .1-.1.2-.1.3.1-.5.3-1.1.5-1.6.1-.3-.1.4-.4 1.3zm-.1 10.1c-.1.4-.7 3-.6 2.5.1-.8.1-.7.2-.7.1-.8.1-.8.4-1.8zM7.5 99c-.2.7-.3 1.4-.4 1.8 0-.3.2-1 .4-1.8zm-.4 11.1l-.3 1.8c.1-.5.2-1.1.3-1.8zm-.4 2.6c0-.1 0-.2.1-.4v-.1.3c-.2.4-.2.3-.1.2zM.3 126.1c.1-1 .3-4.2.3-4.4 0 1.3-.1 2.7-.3 4.4zm.4-4.1v-.3.3zm.3-2.8c-.1.9-.1 1.1-.2 1.8.1-.6.1-.9.2-1.8s0-.1 0 0zm.6-4.5c-.1.4-.1.9-.2 1.5 0-.3.1-.9.2-1.5zM2.8 140c0 .3 0 .4-.2.4-.3 0-.2-.2-.2-.3-.1-.4.1-.6.5-.5-.1.1-.1.2-.1.4zm.6-8.2c0-1.1 0-1.9.1-3.3 0-.9-.1 2.4-.1 3.3zm.6-13.2c-.1 1-.2 2.2-.2 3.2 0-.7.1-2 .2-3.2 0-.5.1-.9.1-1.2 0 .4 0 .8-.1 1.2zm.3-.8c0 .3-.1.7-.1.9v.3c0-.5.1-1.1.1-1.3.1 0 0 0 0 .1zm1.6 9.1c0-.3.1-2.1.2-2.5-.1.6-.2 1.6-.2 2.5zm-.1-2.9c0 .3.1-1.5.2-2.2 0 .5-.1 1.6-.2 2.2zm.1-1.2c.1-.6.2-1.2.2-1.8.1-.5-.3 2.4-.2 1.8zm.4-17.6c0-.1 0 0 0 0zm.7 71.3c-.1-.5-.3-1.1-.4-1.6-.1-.4-.2-.7-.3-1 .1.4.2.7.3 1 .2.5.3 1 .4 1.6 0 .2.1.4.1.6 0 .2.1.4.1.5 0-.2-.1-.3-.1-.5s0-.4-.1-.6zm-.1-51.1c0 .3.1-1.5.2-2.2 0 .6-.2 1.6-.2 2.2zm.2.4c0 .6-.1 1.6-.2 2.5 0-.2.2-2.1.2-2.5zm.1-3.2c-.1.5-.3 2.1-.2 1.6 0-.6.1-1.1.2-1.6 0-.1 0-.1 0 0-.2 1-.4 2.1-.4 3.4 0-.8.2-2.3.4-3.4-.9-.5-.2-1 .2-1.5.3.2.5.4.8.6 0 .6-.4 1.2-1 .9zm1.6 25.7zm.5-11.5v-.2.2zm-1-12.8c-.8-.4-.4-.9.1-1.3.1-.9.2-1.8.2-1.7-.1.8-.2 1.5-.2 1.7.1-.1.1-.1.1-.2.3.2.5.4.8.6-.1.6-.4 1.2-1 .9zm.9-31.4c-.2.6-.4 1.2-.5 1.7.2-.5.4-1.2.5-1.7 0 .1-.1.1-.1.2-.2.7-.3 1.2-.5 1.8.1-.3-.8 2.7-1 3.5.2-.7.4-1.3.6-2.1-.1.3-.3.9-.4 1.4.2-.8.8-2.9 1.4-4.8h-.3v-.5c0-.3 0-.4.2-.4.1 0 .2.1.2.1.2-.7.4-1.4.6-1.9.2-.6.2-.7.2-.7.1-.3.1-.3.2-.7.2-.5.2-.6.2-.7.1-.4.2-.6.3-1.1.2-.8.7-1.8 1.1-2.7.6-1.5 1.1-2.9 1.8-4.5.6-1.3 1.2-2.6 1.8-4 .2-.6.4-.9.5-1 1-1.9 1.9-3.8 2.8-5.5 0 0 0-.1.2-.3.1-.1.1-.3.2-.4.2-.3.3-.6.5-.9-.1.2-.5.9-.8 1.4-.1.1-.1.2-.2.3.5-.9 1.1-1.9 1.5-2.6.5-.8 1.1-1.8 1.7-3 .7-1.1 1.5-2.3 2.1-3.3.4-.7.5-.7.8-1.2.5-.8 1.2-1.9 1.4-2.1-.3.4-.4.6-.7 1.1-.3.5-.7 1.1-.9 1.4-.6 1-1.3 2.1-1.8 2.8l-.4.6c-.2.2-.5.8-.6.9-.2.4-.7 1.1-.9 1.6-.6 1.1-.8 1.4-1.5 2.6 0 .1.7-1.3 0 0-.3.5.1-.1 0 0-.4.7-1 1.8-1.1 2-.3 1.1-.8 2.2-1.3 3.2-.2.5-.5.9-.7 1.4 0 0 0 .1-.1.1-.2.4-.4.9-.6 1.4-.5 1.2-.9 2-1.2 2.7-.4.8-.8 1.8-1.3 3-.4.9-.6 1.5-.5 1.4-.3.6-.6 1.5-1.1 2.7.2-.6.8-2 .9-2.4.2-.5.5-1.3.7-1.7-.5 1.2-1.3 3.3-1.5 3.8 0-.1 0 .1 0 0-.3.7-.4 1.1-.5 1.4-.2.5-.3.8-.4 1-.3.9-.6 1.9-.8 2.5-.3 1-.1.4-.5 1.4 0 .1 0 .1-.1.2 0-.1.1-.3.2-.5 0 .1-.1.3-.2.5v.1c.2.3.1.4-.1.5zm12.5-8.3c0-.3-.1-.8 0-.9.1-.1.8-.3.9-.1.1.2 0 .6 0 .9.2.5-.9.6-.9.1zm.3 106.6l-.4-1 .4 1c-.2-.6.1 0 0 0zm-1.1-1.5l-.4-1 .4 1c-.2-.5.1.1 0 0zm.1-.8l.4 1c.1.2-.6-1.3-.2-.3-.1-.3-.4-.9-.6-1.3.1-.1.5.8.4.6zm.5 1.2c.1.4-1.2-2.7-1-2.3.4 1 .6 1.4 1 2.3zm-1.2-10.9v-.5c0-.3 0-.4.2-.4.3 0 .2.2.2.3.2.6.1.7-.4.6zm.1 8.3c.2.4.4.9.3.7l-.7-1.6s.1.1.1.3c.1.1.2.4.3.6zm-.8-111.8c-.1.2-.2.3-.2.3.2-.4.4-.9.7-1.3 0-.1-.1.1-.5 1zm.4 111.1c-.6-1.4-.9-2.3-1.2-3 .1.2.2.4.3.7.3.7.2.5.2.7.2.5.9 1.9.7 1.6zm-.7-1.6c-.4-.9-.5-1.2-.9-2.4 0-.1-.4-1.2-.4-1 .3.6.4 1.1.5 1.3.3.8.1.3-.1-.3.3.7.7 1.9.9 2.4zm-.8-9.6c-.7.1-.5-.5-.5-.9h.7c.2.4.3.9-.2.9zm-.7-93.6v-.5c0-.3 0-.4.2-.4s.2.2.2.3c.2.5 0 .7-.4.6zm.2 101.1c.3.7.2.5.2.7.2.5.8 2 .7 1.7-.6-1.4-.9-2.3-1.2-3 .1.1.2.4.3.6zm.9 2s.1.1.1.3l.3.6c.2.4.4.9.3.7l-.7-1.6zm1 2.3l.4 1c.1.2-.6-1.3-.2-.3-.1-.3-.4-.9-.6-1.3.1 0 .5.9.4.6zm-.5-1c.4.9.6 1.4 1 2.3.2.4-1.2-2.7-1-2.3zm.3-.2c-.3-.7-.9-2.2-1.2-3-.3-.8.3.9.7 1.7.3.7.3.7.4 1 .6 1.4.5 1.3 1.3 3-.5-1-.9-1.9-1.2-2.7zm1.2 2.9s.5 1.2.7 1.7c0 .1 0 .1.1.2-.3-.8-.6-1.4-.8-1.9zm1.3-113.4c0 .1.1-.1.2-.3 0 .1-.4.8-.7 1.3.1-.2.4-.9 1-2-.1.3-.2.5-.5 1zm.1-11.9c-.3.6-.5 1-.7 1.3-.4.7-.7 1.1-1 1.7l.1-.1c.1-.2.2-.4 0 0-.3.5-.7 1.2-1.2 2.1-.2.3-.4.7-.6 1-.6 1.2-1.3 2.6-1.9 3.7-.6 1.2-.6 1.2 0 0s1.2-2.5 1.9-3.7c0 0 0-.1.1-.1.2-.3.3-.6.5-.9.3-.6.6-1.1.9-1.7.7-1.3 1.2-2 1.9-3.3.2-.3.4-.7.8-1.2-.3.4-.4.5-.8 1.2zm-4.7 13.8zm-.6-.2zm-2.3 1.1c-.2.4-.1.3 0 0-.3.7-.6 1.3-.8 1.7 0 .1.2-.4.2-.3-.4.8-.7 1.8-1.4 3.4 0-.1.6-1.6.5-1.4.1-.2.4-1 .4-1 .1-.1.1-.4.1-.4.3-.7.6-1.4 1.4-3 0 0 .4-.9.3-.6l-.6 1.3c.1-.2.2-.4.1-.4l-.2.7zM14.5 90c-.2.5-.5 1.3-.9 2.4 0-.2.7-2 .9-2.4zm-.6-3.7v-.5c0-.3 0-.4.2-.4s.2.2.2.3c.2.5.1.7-.4.6zm-1 7.8c0 .1-.1.3-.2.5.1-.2.2-.3.2-.5zm-.2-1.5c.1-.2.1-.4.2-.5-.1.1-.1.3-.2.5zm2.5-15.5c-.5 1.2-.5 1-.9 2-.6 1.3-.8 1.8-1.1 2.7.1-.3.5-1.5 1.1-2.7.8-1.7 2.1-4.7 2.3-5-.7 1.4-1.2 2.4-1.4 3zm.4-1.1s0-.1.1-.1c.1-.2.2-.5.4-.8-.1.3-.3.6-.4.8-.1 0-.1.1-.1.1-.3.6-.3.7-.6 1.4-.2.5.7-1.5.6-1.4zm.6-1.3c.1-.1.1-.3.2-.4l1.6-3.2-1.6 3.2c-.1.1-.1.2-.2.4zm4.1-7.8c-.6 1.1-.4.7-.9 1.6.4-.7.8-1.4 1.1-1.9.6-1.1-.5.8-.2.3zM19 69.1c-.1.2.3-.6.4-.7.5-.9.8-1.3 1.3-2.2-.6 1-.9 1.5-1.7 2.9zm0 0c0 .1-.1.1-.1.2 0-.1.2-.3.4-.8-.8 1.5-1.6 3.1-2.5 4.9.2-.3 1.5-2.8 2.2-4.3zm2.6-4.4c-.4.7-.5.8-.9 1.6-.3.4 1.6-2.9 1.5-2.6-.3.6-.3.5-.7 1.3-.4.8.2-.3.4-.6.8-1.4.4-.8 1.3-2.2-.2.1-1 1.3-1.6 2.5zM11 90.9c0-.3-.1-.8 0-.9.1-.1.8-.3.9-.1.1.2 0 .6 0 .9.2.4-1 .5-.9.1zm1 69.5c0-.1-.2-.9-.3-1.8 0-.1.2 1.3.3 1.8zm.1 2.1c-.1-.5-.3-1.2-.4-1.5 0 .2.5 1.7.4 1.5zm-2.7-38.4c.1-.9.2-1.9.2-1.8-.1 1.1-.2 2-.2 1.8zm.2 51.1zm.2-25.5zm.3 5.6c.1.3.2.7.3 1.1 0 .1-.3-1.3-.3-1.1zm0-61.7c-.9-.5-.2-1 .2-1.5.3.2.5.4.8.6-.1.6-.4 1.3-1 .9zm.7 60.6zm.4 23.2zm.3-16.8c-.3-1.6-.4-2-.6-3.2 0 0 .7 3.6.6 3.2zm.7 3.5c-.1-.6-.3-1.2-.4-1.9-.1-.3-.1-.6-.1-.6 0 .2.1.4.1.6.1.8.4 2 .4 1.9zm.3-64.8c-.1.6-.2.8-.3 1.2-.1.4.1-.3.3-1.2 0-.1 0-.1.1-.2-.1.1-.1.2-.1.2zm-.3 0c.1-.2.5-1.6.8-2.4-.1.1-.5 1.4-.8 2.4zm1.3 1.4c-.1.6-.2.8-.3 1.2-.1.4.1-.3.3-1.2 0-.1 0-.1.1-.2 0 .1 0 .2-.1.2zm-.1-5.4c-.2.5-.3 1-.4 1.3 0-.4.2-.8.4-1.3.3-.7.5-1.5.6-1.8-.2.5-.4 1.1-.6 1.8zm.8-.1c-.2-.4.9-.5.9-.1 0 .3.1.8 0 .9-.1.1-.8.3-.9.1-.1-.1-.1-.6 0-.9zm.1 77.1c.1.2.1.5.2.7.3 1 .4 1.1.6 1.7 1 3-.2-.5-.4-1-.1-.5-.4-1.5-.4-1.4zm1.6 7.6c-1 .1-.8-.7-.7-1.3h1c.3.6.4 1.3-.3 1.3zm.1-10.1c-.9-.5-.2-1 .2-1.5.3.2.5.4.8.6 0 .7-.4 1.3-1 .9zm1.2 22.8c0 .3 0 .4-.2.4s-.2-.2-.2-.3c-.1-.4.1-.6.5-.5 0 .1 0 .3-.1.4zm1.4-8.2c-.3-.7-.9-2.2-1.2-3-.3-.8.3.9.7 1.7.3.7.3.7.4 1 .6 1.4.5 1.3 1.3 3l-1.2-2.7zm1.9 4.6c0 .1 0 .1.1.2-.3-.6-.6-1.3-.8-1.8 0-.1.5 1.1.7 1.6zm.1 1.2c-.1-.2-.2-.3-.2-.4.1.1.1.2.2.4.4.9 1.2 2.5 1.7 3.5-.3-.7-1.1-2.3-1.7-3.5zm1.1 1.4c-.1-.2-.2-.3-.2-.4 0 .1.1.2.2.4.4.9 1.2 2.5 1.7 3.5-.3-.6-1.2-2.3-1.7-3.5zm1.7-34.2v-.5c0-.3 0-.4.2-.4s.2.2.2.3c.2.5 0 .7-.4.6zm1.9 52.8c0 .3 0 .4-.2.4-.3 0-.2-.2-.2-.3-.1-.4.1-.6.5-.5 0 .1 0 .2-.1.4zm-.4-150.8c-.4.7-.7 1.1-1.4 2.2.7-1.1.1-.2-.6.9 1.1-1.7 1.7-2.6 2.8-4.4 0 .1 0-.1.2-.3-.3.4-.8 1.2-1 1.6zm1.4 17c0-.3-.1-.8 0-.9.1-.1.8-.3.9-.1.1.2 0 .6 0 .9.2.5-1 .6-.9.1zm3.4 129.2c-.5-.8-1.2-1.9-1.7-2.6 0 0 0-.1 0 0-.2-.3-.4-.6-.5-.8.1.2.3.5.5.8.3.4.3.3.6.8l-.4-.4c-.1-.1-.2-.2-.2-.3.5.8 1.2 1.8 1.6 2.5.1-.1.1-.1.1 0 .2.3.4.6.5.8 0 0-.2-.4-.5-.8zm1.1 1.4c-.8-1.2-1.8-2.8-2.2-3.5.6.9 1.5 2.4 2.1 3.4 0 0 .1 0 .1.1.2.3.4.6.5.8 0 0-.3-.4-.5-.8zm1.2-1.7c0-.3-.1-.8 0-.9.1-.1.8-.3.9-.1.1.2 0 .6 0 .9.2.5-1 .6-.9.1zm.5-3.1c-.3-.3-.5-.7-.7-.9-.2-.2-.2-.2-.5-.6.3.3 1.2 1.5 2.1 2.7 0 .1-.3-.4-.5-.6 0-.1-.2-.4-.4-.6zm-.9 14v-.5c0-.3 0-.4.2-.4s.2.2.2.3c.2.6 0 .7-.4.6zm1.5 4.1c-1 .1-.8-.7-.7-1.3h1c.3.5.4 1.2-.3 1.3zm1-14.4c-.2-.2-.5-.6-.7-.8l-.2-.2s0 .1.2.2c.2.2.4.5.7.8zm-.2-22.7h-.4c-.1 0-.1 0-.1-.1-.2-.3-.6-.5-.6-.9 0-.2 0-.3.1-.4h-.5c-.1 0-.1 0-.1-.1-.2-.3-.6-.5-.6-.9 0-.5.4-.6.6-.9l.1-.1h.4c.4-.1.6.1.5.5v1.1l.1-.1h.4c.4-.1.6.1.5.5v1.1c.2.2 0 .4-.4.3zm.6-67c-.2-.3-.6-.5-.6-.9 0-.2 0-.3.1-.4h-.5c-.1 0-.1 0-.1-.1-.2-.3-.6-.5-.6-.9 0-.5.4-.6.6-.9l.1-.1h.5c.4-.1.6.1.5.5v1.1l.1-.1h.4c.4-.1.6.1.5.5v1.1c.1.4-.1.6-.5.5h-.4c0-.2-.1-.2-.1-.3zm.7 90c-.9-.5-.2-1 .2-1.5.3.2.5.4.8.6 0 .7-.4 1.3-1 .9zm1.1 1.5c-.9-.5-.2-1 .2-1.5.3.2.5.4.8.6-.1.6-.4 1.2-1 .9zm1.1 8.4c.5.7.7.9 1.1 1.4-.3-.3-1.1-1.4-1.1-1.4-.6-.8-.1-.1 0 0zm1.7 2.3c-.2-.2-.3-.4-.3-.4l.2.2c-.3-.4-.6-.7-.6-.8-.6-.7 0-.1 0 0 .3.5.5.7.7 1 .7.8 1.5 1.7 2.5 2.9-.5-.5-1.7-2-2.4-2.8l.3.3c-.1 0-.2-.2-.4-.4zm1.4 6.4c-.3 0-.2-.2-.2-.3h.2c.2.1.2.3 0 .3zm-.6-5.4c.9 1 1.7 2 2.8 3.3-.6-.7-2.7-3.1-2.8-3.3zm2.4 2.7c-.3-.4.2.2.8.9.7.7 1.5 1.6 1.9 2-.5-.5-1.5-1.5-2-2.1-.3-.3-.5-.6-.7-.8zm1.1 1.4c-.3-.4.2.2.8.9.7.7 1.5 1.6 1.9 2-.5-.5-1.5-1.5-2-2.1-.3-.3-.5-.6-.7-.8zm8.5 10.7l-1.5-1.2c-.1.1-.2.1-.3.1H50c.2.2.5.4.8.7-.2-.1-.5-.4-.9-.7-.4 0-.4-.2-.5-.4-.1-.1-.3-.2-.4-.3-.4-.4-1.5-1.4-1.4-1.2.8.7 1.2 1 1.8 1.5v-.4c-.3-.3-.6-.6-1-.8-.6-.5-1.3-1.1-2-1.8l-.3-.3-.3-.3c-.4-.4-.8-.8-1.3-1.2.5.5.8.8 1.3 1.2.2.2.5.4.7.6.9.8 1.9 1.7 3 2.6v-.1h.7c.2.3.2.6.1.8 1.4 1.2 2.9 2.3 4.1 3.3-.4-.4-1.8-1.6-2.5-2.1zm1.7-199.3s.2-.1.3-.2c-.1.1-.2.2-.3.2zm1-.8s.2-.2.3-.2c0 0-.2.1-.3.2zm.4-.3c.1-.1.2-.1.3-.2-.1.1-.3.2-.3.2zm4.5 157H59c-.1 0-.1 0-.1-.1-.2-.3-.6-.5-.6-.9 0-.2 0-.3.1-.4H58c-.1 0-.1 0-.1-.1-.2-.3-.6-.5-.6-.9 0-.5.4-.6.6-.9l.1-.1h.4c.4-.1.6.1.5.5v1.1l.1-.1h.4c.4-.1.6.1.5.5v1.1c.1.2 0 .4-.4.3zm.1-165.7v.5c0 .3 0 .4-.2.4-.3 0-.2-.2-.2-.3-.2-.5-.1-.7.4-.6zm.7 210.7v-.5c0-.3 0-.4.2-.4s.2.2.2.3c.2.5.1.7-.4.6zm.5-9.1c-.7.1-.5-.5-.5-.9h.7c.2.4.2.8-.2.9zm.6-204.4c-1.7 1.2-3.4 2.5-4.8 3.4l-.2.2c-.3.2-.5.4-.8.6-.1.1-.3.2-.4.3.2-.1.7-.5.6-.4-.6.5-.4.3-.6.4-.6.5-1.2.9-2 1.6.7-.6 1.5-1.2 2.4-1.9.3-.2.5-.4.7-.5 0 0 .1 0 .1-.1.1-.1.2-.1.3-.2.6-.5.7-.5 1.5-1.1-.9.7 2.2-1.6 2.7-1.9.2-.1.3-.2.5-.3-.2 0-.2 0 0-.1-.1 0-.1.1-.1.1l.1-.1zm1.1 212l-.1.1.1-.1-.1.1.1-.1zm.1-.1zm0 3.3c.3.2.6.3 1 .6.1 0-1.2-.7-1-.6zm1.3-208.1c-.2.2-.4.3-.6.4.2-.2.4-.3.6-.4.2-.2.5-.3.8-.5.1-.1.2-.1.3-.2-.4.2-.7.4-1.1.7zm1.3-7.4c0 .3 0 .4-.2.4s-.2-.2-.2-.3c-.1-.4.1-.6.5-.5 0 .1-.1.2-.1.4zm2.9 1.1c-.6.3-2.3 1.5-2.2 1.4 1-.7 1.5-1 2.2-1.4zm-.4 214.4l.1-.1-.1.1zm1.8 3.6c-.5-.2-1.1-.6-1.4-.7.1 0 1.6.8 1.4.7zm-.6-2.2s.6.3 1 .6c0 0-.6-.4-1-.6zm-.7 6.6c1.1.6 1.8 1 3.2 1.8-.7-.3-2.3-1.2-3.2-1.8zm2-223.6c-.8.5-1.9 1.2-2.3 1.5.6-.4 2.1-1.4 3.5-2.2.3-.2-.4.2-1.2.7zM74 248.8c-.5-.2-1.4-.7-2-1 .5.2 1.5.7 2 1zm-.3 1.8c0-.3-.1-.8 0-.9s.8-.3.9-.1c.1.2 0 .6 0 .9.2.4-1 .5-.9.1zm.8-23.1v-.5c0-.3 0-.4.2-.4s.2.2.2.3c.2.6 0 .7-.4.6zm1.2-203.1l1.2-.6c.7-.4 1.4-.7 2.2-1.1-.4.2-1.3.6-2.2 1.1l-1.2.6z"/></g></svg>