<svg xmlns="http://www.w3.org/2000/svg" viewBox="0 0 100 100"><path d="M50 68c-9.9 0-18-8.1-18-18 0-1.4-1.1-2.5-2.5-2.5S27 48.6 27 50c0 12.7 10.4 23.1 23.1 23.1s23-10.4 23-23.1S62.7 26.9 50 26.9c-1.4 0-2.5 1.1-2.5 2.5S48.6 32 50 32c9.9 0 18 8.1 18 18s-8.1 18-18 18z"/><path d="M50 82c17.6 0 32-14.4 32-32 0-1.4-1.1-2.5-2.5-2.5S77 48.6 77 50c0 14.8-12.1 26.9-26.9 26.9s-27-12.1-27-26.9S35.2 23.1 50 23.1c1.4 0 2.5-1.1 2.5-2.5s-1.1-2.5-2.5-2.5c-17.6 0-32 14.4-32 32S32.4 82 50 82z"/><path d="M50 9.3c-1.4 0-2.5 1.1-2.5 2.5s1.1 2.5 2.5 2.5c19.6 0 35.6 16 35.6 35.6S69.6 85.6 50 85.6 14.4 69.6 14.4 50c0-1.4-1.1-2.5-2.5-2.5S9.3 48.6 9.3 50c0 22.4 18.3 40.7 40.7 40.7S90.7 72.4 90.7 50 72.4 9.3 50 9.3z"/></svg>